<svg fill="#27476E" xmlns="http://www.w3.org/2000/svg"  viewBox="0 0 24 24" width="30px" height="30px"><path d="M 19.990234 3.9863281 A 1.0001 1.0001 0 0 0 19.292969 4.2929688 L 12 11.585938 L 4.7070312 4.2929688 A 1.0001 1.0001 0 0 0 3.9902344 3.9902344 A 1.0001 1.0001 0 0 0 3.2929688 5.7070312 L 11.292969 13.707031 A 1.0001 1.0001 0 0 0 12.707031 13.707031 L 20.707031 5.7070312 A 1.0001 1.0001 0 0 0 19.990234 3.9863281 z M 19.990234 9.9863281 A 1.0001 1.0001 0 0 0 19.292969 10.292969 L 12 17.585938 L 4.7070312 10.292969 A 1.0001 1.0001 0 0 0 3.9902344 9.9902344 A 1.0001 1.0001 0 0 0 3.2929688 11.707031 L 11.292969 19.707031 A 1.0001 1.0001 0 0 0 12.707031 19.707031 L 20.707031 11.707031 A 1.0001 1.0001 0 0 0 19.990234 9.9863281 z"/></svg>