<svg fill="#000000" xmlns="http://www.w3.org/2000/svg"  viewBox="0 0 24 24" width="192px" height="192px"><path d="M 8.0097656 3 C 7.2946942 3 6.6285259 3.3864457 6.2734375 4.0078125 L 2.2734375 11.007812 C 1.9222538 11.62178 1.921608 12.380438 2.2734375 12.994141 L 6.2734375 19.992188 C 6.6285259 20.613554 7.2946942 21 8.0097656 21 L 15.990234 21 C 16.705306 21 17.371474 20.613554 17.726562 19.992188 L 21.726562 12.994141 L 21.726562 12.992188 C 22.077424 12.378785 22.077425 11.621216 21.726562 11.007812 L 21.726562 11.005859 L 17.726562 4.0078125 C 17.371474 3.3865397 16.705306 3 15.990234 3 L 8.0097656 3 z M 8.0097656 5 L 15.990234 5 L 19.990234 12 L 15.990234 19 L 8.0097656 19 L 4.0097656 12 L 8.0097656 5 z"/></svg>