<svg fill="#000000" xmlns="http://www.w3.org/2000/svg"  viewBox="0 0 24 24" width="192px" height="192px"><path d="M 11.984375 1 A 1.0001 1.0001 0 0 0 11.292969 1.2929688 L 3.2929688 9.2929688 A 1.0001 1.0001 0 0 0 3.1679688 10.554688 C 5.8349047 14.554591 8.5009045 18.554592 11.167969 22.554688 A 1.0001 1.0001 0 0 0 12.832031 22.554688 C 15.499095 18.554592 18.165095 14.554592 20.832031 10.554688 A 1.0001 1.0001 0 0 0 20.707031 9.2929688 L 12.707031 1.2929688 A 1.0001 1.0001 0 0 0 11.984375 1 z M 12 3.4140625 L 18.712891 10.126953 C 16.474873 13.483695 14.237861 16.840659 12 20.197266 C 9.7621388 16.840659 7.5251272 13.483695 5.2871094 10.126953 L 12 3.4140625 z"/></svg>