<?xml version="1.0"?><svg fill="#000000" xmlns="http://www.w3.org/2000/svg"  viewBox="0 0 24 24" width="192px" height="192px">    <path d="M 7.0019531 2.9941406 A 1.0001 1.0001 0 0 0 6.5214844 4.8769531 L 15.914062 10 L 6.5214844 15.123047 A 1.0001 1.0001 0 1 0 7.4785156 16.876953 L 18.478516 10.876953 A 1.0001 1.0001 0 0 0 18.478516 9.1230469 L 7.4785156 3.1230469 A 1.0001 1.0001 0 0 0 7.0019531 2.9941406 z M 6 19 C 5.448 19 5 19.448 5 20 C 5 20.552 5.448 21 6 21 L 18 21 C 18.552 21 19 20.552 19 20 C 19 19.448 18.552 19 18 19 L 6 19 z"/></svg>