<?xml version="1.0"?><svg fill="#000000" xmlns="http://www.w3.org/2000/svg"  viewBox="0 0 24 24" width="192px" height="192px">    <path d="M 12 2 C 11.448 2 11 2.448 11 3 L 11 8 L 6 8 C 5.448 8 5 8.448 5 9 C 5 9.552 5.448 10 6 10 L 11 10 L 11 15 C 11 15.552 11.448 16 12 16 C 12.552 16 13 15.552 13 15 L 13 10 L 18 10 C 18.552 10 19 9.552 19 9 C 19 8.448 18.552 8 18 8 L 13 8 L 13 3 C 13 2.448 12.552 2 12 2 z M 6 18 C 5.448 18 5 18.448 5 19 C 5 19.552 5.448 20 6 20 L 18 20 C 18.552 20 19 19.552 19 19 C 19 18.448 18.552 18 18 18 L 6 18 z"/></svg>