<svg xmlns="http://www.w3.org/2000/svg"  viewBox="0 0 64 64" width="128px" height="128px"><g data-name="Human Resource-Resume-Job Description-File-Profile"><path fill="#bcbec0" d="M60,7v6H52V7a4,4,0,1,1,8,0Z"/><path fill="#e6e7e8" d="M56,3a4,4,0,0,0-4,4V57a4,4,0,1,1-8,0V53H10V7a4,4,0,0,1,4-4Z"/><path fill="#57565c" d="M21,31a3,3,0,0,1,3,3v1H22.83a2.006,2.006,0,0,1-1.42-.59L21,34l-.41.41a2.006,2.006,0,0,1-1.42.59H18V34A3,3,0,0,1,21,31Z"/><path fill="#ffc477" d="M24,15v1a3,3,0,0,1-6,0V15h1.17a2.006,2.006,0,0,0,1.42-.59L21,14l.41.41a2.006,2.006,0,0,0,1.42.59Z"/><path fill="#3d9ae2" d="M21,22a3,3,0,0,0,2.78-1.88l.14-.18a5.172,5.172,0,0,1,.62.52A5.022,5.022,0,0,1,26,24v1H16V24a5,5,0,0,1,2.08-4.06l.14.18A3,3,0,0,0,21,22Z"/><path fill="#57565c" d="M24,14v1H22.83a2.006,2.006,0,0,1-1.42-.59L21,14l-.41.41a2.006,2.006,0,0,1-1.42.59H18V14a3,3,0,0,1,6,0Z"/><path fill="#ffc477" d="M21,39a4.987,4.987,0,0,1,2.92.94l-.14.18a3,3,0,0,1-5.56,0l-.14-.18A4.987,4.987,0,0,1,21,39Z"/><path fill="#c6c5ca" d="M48,61H8a4,4,0,0,1-4-4V53H44v4a3.995,3.995,0,0,0,4,4Z"/><path fill="#ffc477" d="M21,19a4.987,4.987,0,0,1,2.92.94l-.14.18a3,3,0,0,1-5.56,0l-.14-.18A4.987,4.987,0,0,1,21,19Z"/><path fill="#3d9ae2" d="M21,42a3,3,0,0,0,2.78-1.88l.14-.18a5.172,5.172,0,0,1,.62.52A5.022,5.022,0,0,1,26,44v1H16V44a5,5,0,0,1,2.08-4.06l.14.18A3,3,0,0,0,21,42Z"/><path fill="#ffc477" d="M24,35v1a3,3,0,0,1-6,0V35h1.17a2.006,2.006,0,0,0,1.42-.59L21,34l.41.41a2.006,2.006,0,0,0,1.42.59Z"/><path fill="#d8d7da" d="M52,24V57a4,4,0,1,1-8,0V53H23Z"/><path d="M56,2H14A5,5,0,0,0,9,7V52H4a1,1,0,0,0-1,1v4a5,5,0,0,0,5,5H48a5,5,0,0,0,5-5V14h7a1,1,0,0,0,1-1V7A5,5,0,0,0,56,2ZM8,60a3.009,3.009,0,0,1-3-3V54H43v3a4.985,4.985,0,0,0,1,3ZM51,7V57a3,3,0,0,1-6,0V53a1,1,0,0,0-1-1H11V7a3.009,3.009,0,0,1,3-3H52.03A4.924,4.924,0,0,0,51,7Zm8,5H53V7a3,3,0,0,1,6,0Z"/><path d="M23.893,18.747A3.978,3.978,0,0,0,25,16V14a4,4,0,0,0-8,0v2a3.978,3.978,0,0,0,1.107,2.747A6,6,0,0,0,15,24v1a1,1,0,0,0,1,1H26a1,1,0,0,0,1-1V24A6,6,0,0,0,23.893,18.747ZM21,20a3.953,3.953,0,0,1,1.51.3,1.98,1.98,0,0,1-3.02,0A3.953,3.953,0,0,1,21,20Zm0-8a2,2,0,0,1,2,2h-.172a1.009,1.009,0,0,1-.707-.293l-.414-.414a1,1,0,0,0-1.414,0l-.414.414a1.009,1.009,0,0,1-.707.293H19A2,2,0,0,1,21,12Zm-2,4h.172A2.973,2.973,0,0,0,21,15.379,2.973,2.973,0,0,0,22.828,16H23a2,2,0,0,1-4,0Zm-2,8a3.961,3.961,0,0,1,.89-2.484,4,4,0,0,0,6.22,0A3.961,3.961,0,0,1,25,24Z"/><path d="M23.893,38.747A3.978,3.978,0,0,0,25,36V34a4,4,0,0,0-8,0v2a3.978,3.978,0,0,0,1.107,2.747A6,6,0,0,0,15,44v1a1,1,0,0,0,1,1H26a1,1,0,0,0,1-1V44A6,6,0,0,0,23.893,38.747ZM21,40a3.953,3.953,0,0,1,1.51.3,1.98,1.98,0,0,1-3.02,0A3.953,3.953,0,0,1,21,40Zm0-8a2,2,0,0,1,2,2h-.172a1.009,1.009,0,0,1-.707-.293l-.414-.414a1,1,0,0,0-1.414,0l-.414.414a1.009,1.009,0,0,1-.707.293H19A2,2,0,0,1,21,32Zm-2,4h.172A2.973,2.973,0,0,0,21,35.379,2.973,2.973,0,0,0,22.828,36H23a2,2,0,0,1-4,0Zm-2,8a3.961,3.961,0,0,1,.89-2.484,4,4,0,0,0,6.22,0A3.961,3.961,0,0,1,25,44Z"/><rect width="14" height="2" x="33" y="24"/><rect width="14" height="2" x="33" y="20"/><rect width="14" height="2" x="33" y="16"/><rect width="2" height="2" x="33" y="12"/><rect width="10" height="2" x="37" y="12"/><rect width="14" height="2" x="33" y="44"/><rect width="14" height="2" x="33" y="40"/><rect width="14" height="2" x="33" y="36"/><rect width="2" height="2" x="33" y="32"/><rect width="10" height="2" x="37" y="32"/></g></svg>