<svg fill="#000000" xmlns="http://www.w3.org/2000/svg"  viewBox="0 0 24 24" width="192px" height="192px"><path d="M 8.0019531 3.9980469 C 5.7929531 3.9980469 4.0019531 5.7890469 4.0019531 7.9980469 L 4.0019531 15.998047 C 4.0019531 18.207047 5.7929531 19.998047 8.0019531 19.998047 L 16.001953 19.998047 C 18.210953 19.998047 20.001953 18.207047 20.001953 15.998047 L 20.001953 7.9980469 C 20.001953 5.7890469 18.210953 3.9980469 16.001953 3.9980469 L 8.0019531 3.9980469 z M 8.0019531 5.9980469 L 16.001953 5.9980469 C 17.104953 5.9980469 18.001953 6.8950469 18.001953 7.9980469 L 18.001953 15.998047 C 18.001953 17.101047 17.104953 17.998047 16.001953 17.998047 L 8.0019531 17.998047 C 6.8989531 17.998047 6.0019531 17.101047 6.0019531 15.998047 L 6.0019531 7.9980469 C 6.0019531 6.8950469 6.8989531 5.9980469 8.0019531 5.9980469 z"/></svg>